<svg width="678" height="208" viewBox="0 0 678 208" fill="none" xmlns="http://www.w3.org/2000/svg">
<path d="M24.824 3.39999H135.128V118.312C135.128 149.032 129.848 171.688 119.288 186.28C108.728 200.68 91.64 207.88 68.024 207.88C44.408 207.88 27.32 200.68 16.76 186.28C6.2 171.688 0.920001 149.032 0.920001 118.312V3.39999H9.56V118.312C9.56 134.248 10.904 147.688 13.592 158.632C16.28 169.384 20.312 177.64 25.688 183.4C31.064 189.16 37.112 193.288 43.832 195.784C50.552 198.088 58.616 199.24 68.024 199.24C77.432 199.24 85.496 198.088 92.216 195.784C98.936 193.288 104.984 189.16 110.36 183.4C115.736 177.64 119.768 169.384 122.456 158.632C125.144 147.688 126.488 134.248 126.488 118.312V12.04H24.824V3.39999ZM309.508 3.39999V12.04H241.828V205H233.188V12.04H165.508V3.39999H309.508ZM351.058 205H342.418V3.39999H351.058V205ZM528.334 196.36V205H407.95V3.39999H416.59V196.36H528.334ZM555.183 53.224C555.183 34.6 559.887 21.16 569.295 12.904C578.703 4.64799 593.967 0.519989 615.087 0.519989C629.871 0.519989 641.775 4.35999 650.799 12.04C659.823 19.72 666.351 31.432 670.383 47.176L643.599 67.336H629.487L660.591 44.008C656.559 31.144 650.703 22.12 643.023 16.936C635.535 11.752 626.223 9.16 615.087 9.16C607.407 9.16 600.879 9.64 595.503 10.6C590.319 11.56 585.039 13.48 579.663 16.36C574.479 19.048 570.543 23.464 567.855 29.608C565.167 35.752 563.823 43.624 563.823 53.224C563.823 61.672 567.663 69.16 575.343 75.688C583.215 82.216 592.719 87.784 603.855 92.392C614.991 97 626.127 101.704 637.263 106.504C648.591 111.304 658.095 117.448 665.775 124.936C673.647 132.424 677.583 141.064 677.583 150.856C677.583 170.056 672.783 184.36 663.183 193.768C653.775 203.176 637.551 207.88 614.511 207.88C595.695 207.88 580.911 204.136 570.159 196.648C559.407 188.968 552.015 177.16 547.983 161.224L556.047 157.768C559.887 173.32 566.415 184.168 575.631 190.312C585.039 196.264 597.999 199.24 614.511 199.24C632.943 199.24 646.575 195.688 655.407 188.584C664.431 181.48 668.943 168.904 668.943 150.856C668.943 142.408 665.007 134.92 657.135 128.392C649.455 121.864 639.951 116.296 628.623 111.688C617.487 107.08 606.351 102.376 595.215 97.576C584.079 92.776 574.575 86.632 566.703 79.144C559.023 71.656 555.183 63.016 555.183 53.224Z" fill="url(#paint0_linear_25_2)"/>
<defs>
<linearGradient id="paint0_linear_25_2" x1="-25" y1="104.714" x2="695" y2="104.714" gradientUnits="userSpaceOnUse">
<stop stop-color="#FFC517"/>
<stop offset="1" stop-color="#42B883"/>
</linearGradient>
</defs>
</svg>
